<?xml version="1.0" standalone="no"?>
<!DOCTYPE svg PUBLIC "-//W3C//DTD SVG 20010904//EN"
 "http://www.w3.org/TR/2001/REC-SVG-20010904/DTD/svg10.dtd">
<svg version="1.0" xmlns="http://www.w3.org/2000/svg"
 width="1024.000000pt" height="1024.000000pt" viewBox="0 0 1024.000000 1024.000000"
 preserveAspectRatio="xMidYMid meet">
<metadata>
Created by potrace 1.14, written by Peter Selinger 2001-2017
</metadata>
<g transform="translate(0.000000,1024.000000) scale(0.100000,-0.100000)"
fill="#000000" stroke="none">
<path d="M4770 10229 c-1148 -91 -2157 -509 -3005 -1243 -158 -137 -445 -430
-575 -586 -1138 -1370 -1486 -3210 -925 -4895 104 -313 254 -648 417 -935 84
-146 290 -453 392 -585 104 -133 258 -314 268 -314 5 -1 9 304 11 677 l2 677
3 -689 2 -689 133 -134 c234 -238 480 -441 762 -632 202 -136 481 -301 510
-301 3 0 6 453 8 1007 l2 1008 3 -1011 c1 -795 5 -1014 15 -1022 6 -5 77 -40
157 -77 839 -389 1741 -544 2659 -459 91 8 167 17 170 19 3 1 35 6 71 10 36 4
137 20 224 36 785 146 1538 485 2176 978 339 262 703 630 959 970 526 696 867
1526 985 2396 34 247 41 368 41 680 0 325 -8 451 -46 725 -135 976 -563 1906
-1220 2655 -803 914 -1897 1511 -3099 1690 -301 45 -827 66 -1100 44z m966
-2866 c527 -86 991 -305 1289 -607 187 -190 302 -408 362 -686 17 -80 18 -168
18 -1528 l0 -1443 -1477 1 c-1617 0 -1586 -1 -1821 59 -257 67 -444 168 -610
329 -237 232 -357 539 -357 913 0 719 456 1205 1215 1295 94 11 297 14 948 14
l827 0 -2 351 -3 351 -940 4 c-517 2 -1137 4 -1377 4 l-438 0 0 485 0 486
1118 -4 c1083 -3 1121 -4 1248 -24z m-4379 -4305 c-2 -13 -4 -5 -4 17 -1 22 1
32 4 23 2 -10 2 -28 0 -40z m2920 -2795 c-3 -10 -5 -2 -5 17 0 19 2 27 5 18 2
-10 2 -26 0 -35z"/>
<path d="M4390 4505 l0 -395 900 0 900 0 0 395 0 395 -900 0 -900 0 0 -395z"/>
</g>
</svg>
