<?xml version="1.0" standalone="no"?>
<!DOCTYPE svg PUBLIC "-//W3C//DTD SVG 20010904//EN"
 "http://www.w3.org/TR/2001/REC-SVG-20010904/DTD/svg10.dtd">
<svg version="1.0" xmlns="http://www.w3.org/2000/svg"
 width="1024.000000pt" height="1024.000000pt" viewBox="0 0 1024.000000 1024.000000"
 preserveAspectRatio="xMidYMid meet">
<metadata>
Created by potrace 1.14, written by Peter Selinger 2001-2017
</metadata>
<g transform="translate(0.000000,1024.000000) scale(0.100000,-0.100000)"
fill="#000000" stroke="none">
<path d="M4938 10235 c-2 -2 -60 -5 -128 -6 -69 -2 -131 -7 -137 -12 -9 -6
-13 -5 -13 2 0 7 -5 9 -11 5 -7 -4 -30 -9 -53 -11 -54 -4 -69 -7 -82 -16 -6
-3 -14 -3 -18 0 -10 10 -36 13 -36 4 0 -8 -4 -9 -60 -12 -19 -1 -43 -6 -52
-11 -13 -6 -18 -5 -18 4 0 10 -2 10 -9 0 -4 -8 -14 -12 -22 -11 -8 2 -23 0
-34 -3 -11 -4 -36 -9 -55 -12 -19 -3 -46 -8 -60 -11 -14 -3 -43 -8 -65 -11
-22 -4 -49 -11 -60 -17 -11 -6 -28 -10 -37 -8 -10 1 -26 -3 -38 -9 -15 -8 -20
-8 -20 2 0 10 -2 10 -8 1 -4 -6 -19 -14 -32 -16 -55 -10 -91 -20 -96 -28 -2
-4 -11 -6 -19 -2 -8 3 -15 1 -15 -4 0 -5 -8 -9 -17 -10 -43 -3 -63 -8 -63 -14
0 -4 -8 -6 -17 -4 -10 1 -23 -2 -30 -7 -7 -5 -16 -7 -22 -4 -5 3 -11 2 -13 -4
-2 -6 -12 -12 -23 -15 -45 -9 -88 -25 -103 -37 -13 -11 -14 -11 -8 0 6 11 4
11 -10 3 -23 -13 -104 -42 -121 -43 -7 -1 -13 -5 -13 -8 0 -7 -58 -24 -72 -21
-5 0 -8 -3 -8 -9 0 -5 -9 -10 -20 -10 -11 0 -20 -5 -20 -12 0 -6 -3 -9 -6 -5
-4 3 -22 0 -40 -8 -19 -8 -34 -11 -34 -7 0 4 -5 -1 -11 -11 -6 -9 -14 -15 -20
-12 -5 4 -9 1 -9 -5 0 -6 -4 -9 -8 -6 -5 3 -39 -10 -75 -28 -37 -19 -67 -32
-67 -29 0 2 -13 -5 -29 -16 -15 -11 -31 -18 -34 -14 -4 3 -9 -1 -13 -10 -3 -9
-12 -13 -20 -10 -8 3 -14 0 -14 -6 0 -6 -3 -10 -7 -9 -13 3 -83 -35 -83 -45 0
-5 -7 -7 -15 -3 -8 3 -15 2 -15 -2 0 -5 -16 -14 -35 -22 -19 -8 -35 -18 -35
-22 0 -5 -4 -7 -9 -4 -5 3 -12 -1 -15 -10 -4 -9 -9 -14 -13 -11 -3 4 -18 -2
-33 -13 -16 -11 -33 -20 -39 -20 -6 0 -11 -3 -11 -7 0 -5 -18 -17 -40 -27 -22
-11 -40 -23 -40 -28 0 -5 -4 -6 -10 -3 -5 3 -10 1 -10 -4 0 -6 -7 -11 -15 -11
-8 0 -15 -4 -15 -10 0 -5 -11 -12 -24 -16 -14 -3 -27 -12 -30 -21 -3 -8 -10
-11 -16 -8 -5 3 -10 1 -10 -4 0 -6 -7 -11 -15 -11 -8 0 -15 -7 -15 -15 0 -8
-6 -12 -14 -9 -8 3 -20 -4 -28 -15 -8 -12 -18 -18 -21 -14 -4 3 -7 1 -7 -6 0
-8 -6 -11 -16 -7 -8 3 -13 2 -10 -2 3 -4 -24 -28 -60 -52 -35 -24 -64 -47 -64
-52 0 -4 -6 -8 -14 -8 -8 0 -16 -7 -20 -15 -3 -8 -10 -15 -16 -15 -10 0 -37
-20 -76 -58 -13 -13 -24 -20 -24 -16 0 4 -10 -4 -23 -17 -13 -13 -32 -29 -43
-36 -10 -6 -18 -16 -16 -22 1 -6 -1 -10 -5 -9 -8 3 -37 -19 -75 -54 -10 -10
-23 -18 -29 -18 -5 0 -7 -4 -4 -10 3 -5 -1 -10 -10 -10 -9 0 -14 -4 -10 -9 3
-5 -3 -12 -12 -15 -10 -3 -44 -33 -76 -66 -32 -33 -62 -60 -65 -60 -4 0 -18
-16 -31 -35 -13 -19 -27 -33 -31 -30 -4 2 -13 -7 -20 -20 -7 -13 -17 -22 -22
-19 -4 3 -8 1 -8 -3 0 -5 -18 -28 -40 -52 -22 -23 -40 -46 -40 -49 0 -4 -13
-16 -29 -27 -16 -10 -28 -23 -25 -27 3 -4 -5 -12 -16 -18 -11 -6 -18 -15 -15
-21 4 -5 -1 -9 -10 -9 -9 0 -14 -4 -11 -9 3 -5 -1 -12 -10 -15 -8 -3 -12 -10
-9 -16 3 -5 -1 -10 -9 -10 -18 0 -39 -34 -28 -45 4 -5 3 -6 -3 -3 -5 3 -16 0
-23 -8 -7 -8 -11 -14 -9 -14 3 0 -13 -19 -34 -42 -21 -23 -36 -45 -33 -50 3
-4 -1 -11 -10 -14 -8 -3 -27 -24 -43 -47 -15 -23 -33 -48 -40 -55 -6 -6 -15
-21 -18 -32 -4 -11 -10 -18 -15 -15 -4 2 -13 -9 -20 -25 -7 -17 -17 -30 -23
-30 -6 0 -8 -3 -4 -6 5 -6 -10 -28 -46 -66 -9 -10 -15 -18 -12 -18 8 0 -27
-53 -45 -68 -13 -12 -13 -13 0 -6 14 7 -14 -33 -33 -47 -5 -3 -8 -8 -6 -10 1
-2 -10 -23 -24 -46 -15 -24 -27 -47 -27 -53 0 -5 -4 -10 -10 -10 -5 0 -10 -7
-10 -15 0 -8 -4 -15 -10 -15 -5 0 -10 -7 -10 -16 0 -9 -9 -27 -20 -41 -11 -14
-20 -32 -20 -39 0 -8 -4 -14 -10 -14 -5 0 -6 -7 -3 -17 4 -11 3 -14 -5 -9 -7
4 -12 1 -12 -10 0 -9 -8 -23 -17 -31 -10 -8 -11 -11 -4 -7 10 5 7 -3 -6 -22
-11 -16 -24 -39 -27 -51 -4 -13 -12 -23 -18 -23 -6 0 -9 -3 -5 -6 3 -4 -1 -21
-10 -38 -10 -17 -18 -33 -18 -36 -1 -3 -11 -24 -23 -46 -11 -23 -18 -44 -15
-48 4 -3 1 -6 -5 -6 -7 0 -12 -9 -12 -20 0 -11 -4 -20 -10 -20 -5 0 -10 -8
-10 -18 0 -10 -7 -28 -16 -40 -8 -12 -12 -22 -9 -22 3 0 0 -10 -7 -22 -7 -13
-13 -26 -14 -30 -1 -5 -3 -11 -4 -15 -1 -5 -2 -11 -1 -15 0 -5 -4 -8 -9 -8 -6
0 -10 -8 -10 -18 0 -10 -3 -22 -7 -26 -4 -3 -8 -16 -10 -27 -2 -11 -8 -30 -15
-42 -12 -22 -18 -42 -20 -64 -1 -7 -6 -13 -11 -13 -6 0 -7 -3 -4 -7 4 -3 2
-12 -4 -20 -6 -7 -9 -13 -5 -13 4 0 0 -13 -9 -30 -8 -16 -15 -32 -15 -35 0 -8
-2 -17 -20 -75 -8 -25 -15 -53 -16 -64 -1 -10 -8 -22 -15 -27 -12 -7 -11 -9 1
-9 12 0 12 -2 2 -9 -8 -4 -13 -11 -13 -15 1 -3 1 -7 0 -8 -3 -10 -9 -37 -14
-63 -3 -16 -8 -37 -12 -45 -8 -21 -13 -39 -20 -82 -3 -21 -9 -38 -13 -38 -4 0
-6 -13 -5 -30 1 -16 -1 -30 -5 -30 -4 0 -6 -10 -6 -22 1 -13 0 -27 -3 -33 -6
-12 -8 -19 -16 -65 -4 -19 -12 -62 -19 -96 -7 -33 -12 -68 -10 -77 1 -9 -3
-17 -9 -17 -7 0 -5 -5 3 -10 12 -8 12 -10 1 -10 -8 0 -11 -3 -8 -7 4 -3 1 -13
-6 -21 -9 -13 -9 -14 0 -8 14 8 18 -6 6 -18 -7 -6 -12 -40 -16 -108 -1 -21 -4
-38 -7 -38 -3 0 -6 -21 -7 -47 -1 -27 -6 -82 -10 -123 -8 -83 -10 -673 -3
-787 3 -40 8 -73 11 -73 3 0 6 -15 6 -33 2 -62 8 -117 13 -117 5 0 8 -28 13
-122 0 -16 4 -28 7 -28 3 0 6 -17 7 -37 1 -35 9 -88 13 -88 1 0 4 -13 6 -30 3
-16 10 -35 15 -41 7 -8 6 -14 -1 -19 -8 -5 -8 -11 1 -21 6 -8 8 -14 4 -14 -4
0 -2 -7 5 -15 10 -12 10 -15 -1 -15 -10 0 -10 -3 -3 -8 6 -4 10 -15 8 -24 -1
-10 2 -18 8 -18 5 0 8 -8 7 -17 -1 -10 0 -21 1 -25 1 -5 4 -12 5 -18 1 -5 3
-11 5 -12 2 -3 9 -40 12 -65 1 -7 4 -13 8 -13 4 0 6 -11 5 -25 -2 -13 3 -29
10 -35 8 -6 12 -17 9 -25 -3 -7 1 -28 9 -46 8 -19 13 -42 11 -52 -1 -9 3 -17
9 -17 5 0 7 -3 4 -7 -4 -3 -1 -13 6 -21 10 -13 9 -14 -2 -8 -9 6 -8 1 3 -16 9
-14 13 -28 9 -31 -3 -4 -1 -7 5 -7 7 0 11 -3 11 -7 -1 -5 -1 -10 1 -13 1 -3 3
-16 6 -29 2 -14 9 -30 15 -38 6 -7 8 -13 4 -13 -4 0 -1 -8 6 -17 12 -15 12
-16 -1 -8 -9 5 -8 0 4 -13 11 -12 16 -22 13 -22 -10 0 14 -63 36 -94 12 -16
16 -26 9 -22 -16 10 -15 7 8 -42 11 -22 20 -48 20 -57 0 -8 5 -15 11 -15 5 0
8 -4 4 -9 -3 -5 -1 -12 5 -16 6 -4 8 -11 5 -16 -4 -5 -1 -9 4 -9 6 0 11 -9 11
-20 0 -11 5 -20 11 -20 6 0 9 -6 6 -14 -3 -8 1 -20 9 -26 8 -7 14 -18 14 -24
0 -13 101 -225 124 -261 9 -13 16 -31 16 -40 0 -9 7 -18 15 -21 8 -4 13 -10
10 -14 -3 -4 6 -24 20 -44 13 -20 22 -36 19 -36 -3 0 2 -7 10 -16 9 -8 14 -20
11 -25 -4 -5 -2 -9 3 -9 5 0 15 -13 22 -30 7 -16 17 -30 23 -30 6 0 8 -3 4 -6
-3 -4 -1 -12 6 -20 22 -25 32 -40 35 -54 2 -8 8 -16 13 -18 5 -2 9 -9 9 -16 0
-7 8 -21 18 -32 23 -27 41 -55 48 -76 4 -10 11 -18 17 -18 6 0 8 -3 4 -6 -5
-5 10 -27 40 -59 7 -8 13 -18 13 -24 0 -6 5 -11 10 -11 6 0 10 -4 10 -10 0 -9
19 -35 47 -65 7 -8 13 -18 13 -24 0 -6 5 -11 10 -11 6 0 10 -7 10 -16 0 -8 4
-12 10 -9 5 3 10 0 10 -8 0 -7 12 -27 28 -45 15 -17 36 -43 47 -59 11 -15 30
-38 43 -51 12 -13 22 -26 22 -30 0 -4 9 -14 19 -22 11 -7 18 -17 15 -22 -3 -4
2 -8 10 -8 9 0 16 -5 16 -10 0 -6 18 -30 40 -52 22 -23 40 -46 40 -51 0 -4 5
-5 10 -2 6 3 10 0 10 -8 0 -17 46 -58 56 -49 4 4 5 2 1 -3 -8 -15 20 -48 34
-39 8 4 10 3 5 -5 -4 -6 0 -14 8 -17 9 -3 16 -13 16 -21 0 -8 3 -12 8 -10 7 5
33 -18 27 -24 -2 -2 12 -15 31 -29 18 -14 34 -31 34 -39 0 -8 3 -12 6 -8 8 8
34 -18 34 -33 0 -6 4 -9 9 -6 5 3 19 -8 32 -24 13 -16 30 -30 37 -30 7 0 10
-4 7 -10 -3 -5 -1 -10 5 -10 7 0 27 -16 46 -35 19 -20 34 -33 34 -30 0 3 10
-4 23 -17 13 -13 42 -39 66 -58 24 -19 49 -39 55 -45 42 -37 97 -75 106 -75 6
0 9 -4 6 -8 -3 -5 7 -15 22 -23 15 -8 31 -20 35 -26 4 -7 12 -13 17 -13 6 0
19 -9 30 -20 12 -12 25 -18 30 -15 6 4 10 -1 10 -10 0 -9 4 -13 10 -10 5 3 10
1 10 -4 0 -6 7 -11 15 -11 8 0 15 -4 15 -10 0 -5 6 -10 13 -10 7 0 19 -9 26
-19 8 -11 20 -17 28 -14 8 3 13 -2 13 -13 0 -9 3 -14 7 -11 3 4 15 0 25 -10
10 -9 18 -13 18 -10 0 4 11 -3 25 -15 14 -12 33 -23 42 -24 9 -2 19 -8 23 -14
7 -12 37 -31 77 -49 11 -5 24 -15 28 -21 3 -5 11 -8 16 -5 5 4 9 1 9 -4 0 -6
10 -11 22 -11 12 0 18 -3 15 -7 -8 -7 38 -33 59 -33 8 0 14 -4 14 -9 0 -8 55
-36 72 -36 3 0 17 -9 30 -21 13 -11 30 -18 37 -16 9 3 11 0 6 -7 -4 -8 -2 -11
6 -10 8 2 48 -13 89 -33 41 -20 98 -46 125 -58 28 -12 67 -30 88 -41 20 -10
37 -16 37 -14 0 3 13 -1 29 -9 16 -9 31 -12 35 -9 3 4 6 1 6 -5 0 -7 6 -12 14
-12 7 0 46 -14 87 -30 40 -17 79 -28 85 -26 7 3 14 1 16 -5 2 -5 12 -11 23
-13 11 -3 37 -12 58 -20 20 -9 37 -13 37 -10 0 4 6 2 13 -4 7 -6 24 -12 37
-14 14 -2 30 -7 37 -11 6 -4 23 -8 37 -9 14 -1 26 -5 26 -8 0 -3 14 -7 32 -8
18 -2 35 -6 38 -10 3 -4 11 -8 18 -10 7 -1 20 -4 30 -6 9 -1 24 -6 32 -9 23
-9 105 -25 148 -29 6 -1 12 -4 12 -8 0 -4 12 -6 28 -5 15 1 32 -2 39 -7 7 -6
17 -7 22 -4 5 4 12 2 15 -3 3 -5 19 -8 36 -7 16 1 30 -1 30 -5 0 -4 8 -6 18
-4 9 1 22 0 27 -4 10 -6 21 -8 70 -15 17 -3 30 -5 30 -6 0 -1 27 -4 60 -7 33
-3 63 -10 67 -16 6 -9 8 -8 8 1 0 8 5 10 13 5 6 -4 28 -8 47 -9 109 -6 180
-13 189 -19 6 -3 11 0 11 7 0 8 3 9 8 3 4 -5 18 -10 32 -10 14 0 28 -4 32 -10
5 -6 8 -5 8 4 0 10 3 11 13 2 10 -7 99 -10 293 -7 290 4 331 6 352 19 6 5 12
4 12 -2 0 -5 10 -8 23 -5 25 5 126 15 175 16 17 1 32 6 32 11 0 5 7 4 15 -3 9
-7 15 -8 15 -2 0 6 11 9 25 7 14 -1 25 1 25 4 0 4 19 6 43 5 23 -1 46 1 52 4
5 4 23 7 40 9 16 1 48 7 70 12 22 6 54 13 70 15 17 2 30 5 30 6 0 3 43 10 73
12 12 1 22 5 22 9 0 4 14 5 30 4 17 -1 30 2 30 7 0 6 9 8 20 5 11 -3 20 -2 20
3 0 4 15 10 33 13 48 7 90 17 107 24 8 3 18 7 23 8 4 2 8 3 10 5 3 2 45 10 70
12 9 1 17 5 17 8 0 3 12 7 28 8 15 1 29 7 30 12 2 6 8 7 13 4 6 -3 16 0 24 6
8 7 15 9 15 5 0 -4 7 -2 15 5 8 7 15 9 15 5 0 -4 6 -3 13 3 7 6 24 12 37 14
14 2 32 8 40 13 8 5 22 10 30 10 8 1 33 9 54 18 22 10 50 20 63 23 13 4 23 10
23 15 0 5 6 6 14 3 8 -3 17 0 21 5 3 6 11 9 16 6 5 -4 9 -1 9 4 0 6 3 10 8 9
16 -3 62 15 62 25 0 6 3 7 6 4 4 -3 16 -1 28 5 11 7 24 13 29 14 4 1 10 3 15
4 4 1 10 2 15 1 4 0 7 3 7 9 0 5 9 10 20 10 11 0 20 5 20 10 0 6 7 10 15 10 9
0 30 8 48 17 18 9 35 16 40 15 4 -1 7 3 7 9 0 5 5 7 10 4 6 -3 10 -3 10 2 0 4
11 13 25 20 19 8 24 8 19 0 -3 -7 0 -5 8 4 7 9 23 19 36 23 12 4 22 12 22 17
0 6 4 8 9 4 5 -3 12 -1 16 5 4 6 10 8 15 5 5 -3 13 3 19 12 6 10 11 14 11 9 0
-5 7 -3 15 4 8 7 15 9 15 4 0 -5 4 -4 8 2 8 12 83 59 95 59 4 0 11 6 16 13 5
8 11 13 15 13 11 -2 62 27 75 43 7 9 17 13 22 10 5 -3 9 0 9 5 0 6 6 11 13 11
7 0 23 9 35 20 12 11 26 20 32 20 5 0 10 4 10 10 0 5 8 7 18 3 9 -3 14 -2 9 2
-4 5 12 20 35 34 24 14 52 33 62 43 11 10 23 18 27 18 5 0 17 10 29 22 11 12
22 19 25 16 3 -3 19 6 34 21 50 46 80 69 85 63 3 -3 8 3 12 12 3 9 12 16 20
16 8 0 14 5 14 12 0 6 3 9 6 6 3 -3 19 7 35 23 16 16 34 29 40 29 6 0 7 4 4
10 -3 5 -1 10 5 10 12 0 25 10 70 53 17 16 30 26 30 23 0 -3 19 13 43 37 23
23 44 42 47 42 11 1 125 120 122 128 -1 5 2 6 8 2 5 -3 13 1 16 9 3 9 10 14
14 11 5 -3 11 4 15 15 4 11 11 18 16 15 5 -4 9 -2 9 3 0 14 77 91 84 84 3 -3
6 2 6 12 0 11 5 15 13 10 6 -4 8 -3 4 1 -4 5 4 21 18 35 80 79 165 178 165
191 0 6 5 7 10 4 6 -3 10 3 10 14 0 12 6 20 13 19 6 -2 11 2 10 9 -2 6 6 15
17 18 11 4 18 11 15 16 -4 5 -1 9 4 9 6 0 11 5 11 10 0 6 10 22 23 36 12 14
31 35 42 48 11 12 21 26 22 31 2 6 9 18 18 27 8 10 26 36 41 58 15 22 31 40
36 40 5 0 6 4 3 10 -3 5 -1 10 4 10 6 0 11 6 11 13 0 7 11 24 24 39 14 14 22
29 19 32 -4 3 -2 6 4 6 6 0 16 13 23 30 7 16 16 30 20 30 4 0 17 20 30 45 13
25 26 45 30 45 6 0 14 19 19 45 1 3 10 14 21 25 11 11 20 27 20 35 0 8 4 15 9
15 9 0 26 48 22 63 -1 5 3 6 8 3 5 -3 14 8 21 24 7 16 17 27 23 23 5 -3 7 -2
4 4 -3 5 0 21 8 36 8 15 11 27 7 27 -4 0 1 5 11 11 9 6 15 14 12 20 -4 5 -1 9
5 9 6 0 8 5 5 10 -3 6 -2 10 2 10 8 0 43 71 43 86 0 4 8 13 18 21 9 8 10 11 3
7 -9 -4 -6 6 8 24 12 18 19 32 15 32 -3 0 -1 7 6 15 7 8 9 15 4 15 -5 0 -2 6
6 13 16 13 23 30 24 59 0 9 3 15 7 12 7 -4 22 34 20 49 -1 4 3 7 9 7 6 0 9 3
8 8 0 4 2 15 5 25 10 24 15 41 14 47 0 3 6 16 13 30 8 14 15 27 15 30 1 3 7
19 14 35 7 17 14 35 15 41 1 7 8 19 15 28 8 9 11 19 8 22 -3 3 1 20 8 39 8 18
11 35 8 39 -4 3 -1 6 5 6 7 0 11 3 11 8 -1 4 0 9 1 12 3 10 11 45 12 58 1 6 5
12 10 12 4 0 7 3 7 8 -1 4 0 10 1 15 4 10 6 18 14 52 4 17 12 41 17 55 5 14
11 36 13 50 3 14 6 27 7 30 1 3 3 10 4 15 1 6 7 30 14 55 7 25 15 53 16 62 2
10 6 22 9 26 3 5 6 25 8 45 1 21 5 37 9 37 4 0 7 8 7 18 0 9 3 31 7 47 3 17 8
37 9 45 1 9 5 21 10 28 4 7 2 12 -6 12 -9 0 -9 3 -2 8 6 4 11 14 12 22 0 8 3
27 6 42 4 16 8 40 10 55 2 16 7 37 12 47 5 15 4 17 -6 11 -10 -6 -11 -4 -4 6
11 19 14 34 19 99 2 30 5 55 6 55 0 0 3 18 4 40 2 22 4 40 5 40 1 0 4 26 6 59
2 32 6 61 8 64 3 3 0 12 -7 20 -7 9 -7 13 -1 9 14 -8 17 44 17 358 1 227 -3
342 -18 480 -4 33 -8 74 -9 91 -2 17 -7 37 -11 44 -6 9 -4 11 6 5 11 -7 12 -6
3 6 -5 8 -10 21 -9 29 1 8 -3 23 -7 33 -6 11 -5 17 4 17 8 0 9 3 3 8 -6 4 -11
18 -13 32 -4 48 -11 105 -13 108 -1 1 -2 10 -3 20 -1 9 -5 26 -8 37 -4 11 -10
38 -13 60 -4 22 -8 47 -10 55 -2 8 -4 23 -4 33 -1 10 -5 16 -10 12 -6 -3 -6 6
-1 25 5 19 5 28 -1 25 -5 -4 -9 2 -10 12 0 10 -2 25 -4 33 -2 8 -6 29 -10 45
-9 42 -13 60 -15 63 -2 1 -4 7 -5 12 -1 6 -3 11 -5 13 -2 3 -10 39 -12 60 -1
9 -5 17 -9 17 -4 0 -5 9 -2 20 3 11 1 20 -4 20 -5 0 -10 6 -11 13 -1 24 -12
62 -31 117 -11 30 -17 58 -15 62 3 5 0 8 -5 8 -6 0 -11 8 -11 18 0 10 -5 23
-12 30 -7 7 -9 12 -5 12 4 0 1 16 -7 35 -8 19 -12 35 -9 35 3 0 0 6 -6 13 -6
8 -8 17 -4 20 3 4 2 7 -3 7 -5 0 -16 20 -23 45 -7 25 -17 45 -22 45 -4 0 -6 9
-4 20 2 11 -1 20 -6 20 -6 0 -8 4 -4 9 3 5 1 12 -5 16 -6 4 -8 11 -5 16 4 5 0
12 -8 15 -7 2 -14 10 -14 17 -1 22 -8 41 -21 55 -7 8 -10 18 -7 23 4 5 1 9 -5
9 -6 0 -8 5 -5 10 3 6 1 10 -5 10 -6 0 -9 4 -5 10 3 5 -6 28 -20 51 -15 22
-27 49 -28 60 -1 10 -7 21 -14 23 -7 3 -13 12 -13 20 0 17 -79 168 -93 177 -5
3 -8 9 -7 13 4 13 -51 106 -62 106 -5 0 -8 7 -4 15 3 8 2 15 -2 15 -7 0 -9 3
-51 83 -14 26 -29 47 -33 47 -4 0 -8 7 -8 15 0 8 -4 15 -8 15 -5 0 -15 16 -22
36 -8 20 -23 40 -32 45 -10 6 -16 14 -13 20 4 5 -1 12 -9 15 -9 3 -16 12 -16
20 0 8 -4 14 -10 14 -5 0 -10 5 -10 10 0 12 -80 123 -92 128 -5 2 -8 8 -8 13
0 8 -20 35 -47 64 -7 8 -13 17 -13 21 0 4 -7 14 -15 23 -47 50 -85 98 -85 109
0 7 -4 10 -10 7 -5 -3 -10 -2 -10 3 0 5 -13 22 -28 38 -16 17 -31 38 -35 47
-3 9 -14 17 -23 17 -10 0 -15 3 -11 6 6 6 -8 24 -95 116 -32 34 -58 65 -58 70
0 4 -5 8 -10 8 -14 0 -60 46 -60 60 0 5 -4 10 -9 10 -5 0 -28 18 -50 40 -22
22 -45 40 -51 40 -5 0 -9 4 -7 8 3 10 -43 56 -66 65 -9 3 -17 14 -17 23 0 10
-3 15 -6 11 -3 -3 -14 2 -24 11 -46 43 -132 116 -189 160 -19 15 -40 33 -47
40 -7 6 -17 12 -23 12 -6 0 -15 9 -21 20 -6 11 -16 20 -23 20 -12 0 -48 27
-94 70 -13 11 -26 21 -30 22 -15 2 -88 53 -96 66 -5 7 -12 10 -18 7 -5 -4 -9
-2 -9 2 0 5 -20 19 -45 33 -25 14 -45 28 -45 32 0 5 -6 8 -13 8 -7 0 -23 9
-34 19 -12 11 -23 18 -26 15 -2 -2 -10 2 -17 11 -7 8 -19 15 -26 15 -8 0 -14
5 -14 10 0 6 -9 10 -21 10 -13 0 -18 4 -13 12 5 8 2 9 -9 5 -11 -4 -17 -1 -17
8 0 9 -10 15 -25 15 -13 0 -29 8 -34 18 -6 9 -11 13 -11 8 0 -5 -9 -1 -20 9
-11 10 -20 15 -20 11 0 -4 -7 0 -16 8 -8 9 -20 14 -25 11 -5 -4 -9 -1 -9 4 0
6 -6 11 -13 11 -7 0 -23 9 -34 19 -12 11 -24 17 -27 14 -3 -4 -6 0 -6 7 0 7
-3 11 -6 7 -4 -3 -28 5 -55 19 -27 13 -49 21 -49 17 0 -5 -4 -3 -8 2 -10 14
-68 45 -94 50 -12 3 -25 10 -30 17 -4 7 -8 10 -8 6 0 -4 -28 6 -62 22 -35 17
-69 30 -75 30 -7 0 -13 4 -13 9 0 4 -11 7 -25 6 -14 -2 -23 1 -19 6 3 5 0 10
-5 10 -26 3 -30 4 -37 12 -4 4 -16 7 -26 7 -11 0 -17 3 -15 8 3 4 -7 8 -21 9
-15 0 -28 6 -30 12 -2 5 -10 7 -18 4 -8 -3 -14 1 -14 8 0 11 -3 11 -10 -1 -6
-9 -10 -10 -10 -3 0 6 -9 10 -20 8 -11 -2 -18 0 -15 6 4 5 1 10 -4 10 -19 2
-24 4 -116 33 -49 15 -98 32 -109 38 -14 7 -17 6 -11 -4 4 -8 1 -7 -7 2 -7 8
-26 16 -43 17 -31 3 -68 10 -72 13 -2 2 -6 3 -10 4 -5 1 -12 4 -18 8 -5 3 -26
9 -46 12 -20 3 -48 10 -62 15 -14 6 -35 8 -47 6 -11 -2 -18 0 -15 6 4 5 -9 9
-28 9 -19 0 -47 4 -63 9 -16 6 -45 12 -64 15 -54 7 -141 25 -151 31 -5 4 -9 1
-9 -6 0 -8 -4 -8 -13 -1 -7 6 -31 12 -52 13 -22 1 -48 6 -57 11 -12 6 -18 5
-18 -3 0 -7 -4 -8 -12 -2 -7 5 -20 9 -28 8 -8 -1 -23 2 -32 7 -10 5 -18 3 -21
-5 -4 -9 -6 -9 -6 1 -1 7 -5 10 -11 7 -5 -3 -18 -2 -28 4 -11 6 -24 6 -34 0
-11 -6 -19 -6 -23 1 -3 5 -11 10 -16 10 -6 0 -7 -5 -3 -11 4 -8 1 -8 -12 -1
-11 5 -62 10 -114 11 -52 1 -96 4 -98 6 -3 2 -13 0 -23 -6 -13 -7 -19 -6 -19
1 0 10 -322 14 -332 5z"/>
</g>
</svg>
